<svg width="560" height="560" xmlns="http://www.w3.org/2000/svg">

 <g>
  <title>background</title>
  <rect fill="none" id="canvas_background" height="602" width="802" y="-1" x="-1"/>
 </g>
 <g>
  <title>Layer 1</title>
  <g id="svg_1">
   <path id="svg_2" fill="#00d1ff" d="m483.5,98.41797l-400,0c-34.51172,0.01172 -62.48437,27.98828 -62.5,62.5l0,233.37109c0.01562,34.51172 27.98828,62.49219 62.5,62.5l400,0c34.51172,-0.00781 62.48438,-27.98828 62.5,-62.5l0,-233.37109c-0.01562,-34.51172 -27.98828,-62.48828 -62.5,-62.5zm-400,25l400,0c18.00391,0.04687 33.45313,12.82422 36.875,30.49609l-236.875,132.00391l-236.875,-132.00391c3.42188,-17.67187 18.87109,-30.44922 36.875,-30.49609zm400,308.25l-400,0c-20.68359,-0.0625 -37.44141,-16.81641 -37.5,-37.5l0,-212l231.375,128.99609c1.875,1.03125 3.98047,1.59375 6.125,1.62891c2.15234,0.02344 4.26563,-0.53906 6.125,-1.62891l231.375,-128.99609l0,212c-0.01562,20.70312 -16.79687,37.48047 -37.5,37.5zm0,0"/>
  </g>
 </g>
</svg>