<svg width="416" height="416.68" xmlns="http://www.w3.org/2000/svg">

 <g>
  <title>background</title>
  <rect fill="none" id="canvas_background" height="602" width="802" y="-1" x="-1"/>
 </g>
 <g>
  <title>Layer 1</title>
  <g id="svg_1" transform="matrix(-1,0,0,1,328.6796875,0) ">
   <path id="svg_2" fill="#00ffa4" d="m83.42969,411.81641c-35.27344,-7.05078 -67.66406,-24.38672 -93.09766,-49.82422l-16.99219,-16.99219l32,0c-25.92578,-25.92188 -42.46875,-59.75 -47.01562,-96.12891l-0.98438,-7.87109l40,8l-7.71093,-12.33594c-20.22657,-32.36719 -23.32032,-72.58203 -8.28907,-107.66406l16,24l0,-18.74219c0,-28.97656 11.51172,-56.76953 32,-77.25781l8,32l1.27344,-2.97656c14.83203,-34.60157 39.40625,-64.14063 70.72656,-85.02344l7.51172,5.00781c25.83203,17.22266 43.38282,44.36719 48.48828,74.99219l16,-24c15.57813,20.77344 24,46.03516 24,72l0,8l10.6875,-7.12891c8.31641,-5.54297 13.3125,-14.875 13.3125,-24.87109l7.85547,13.75391c15.61719,27.32421 21.32031,59.20312 16.14453,90.24609c10.24219,0 20.07032,-4.07031 27.3125,-11.3125l4.6875,-4.6875l-4,40.19922c-2.60937,26.03906 -12.29296,50.87109 -28,71.80078l24,0l-21.17578,42.39844c-7.1289,14.26562 -17.13281,26.90234 -29.38281,37.11328l-0.64063,0.48828c-18.72265,15.63281 -41.76562,25.19531 -66.05468,27.40625l-24.48047,2.22656c-17.4375,1.57813 -35.01172,0.62891 -52.17578,-2.8164zm0,0"/>
   <g id="svg_3" fill="#58af7a">
    <path id="svg_4" fill="#00ffa4" d="m125.33984,385l-23.01562,0c-22.5625,-0.00391 -45.03906,-2.77344 -66.92969,-8.23828l3.89063,-15.52344c20.61718,5.15625 41.78906,7.76172 63.03906,7.76172l21.89453,0l5.67188,-1.60156c31.5039,-8.96485 60.89453,-24.14063 86.44921,-44.62891l10,12.4961c-27.21093,21.8125 -58.51172,37.96875 -92.05468,47.51953l-6.75391,1.91797c-0.71094,0.20312 -1.44922,0.30078 -2.19141,0.29687zm0,0"/>
    <path id="svg_5" fill="#00ffa4" d="m128.23438,417.67969l-22.65625,-54.51172c-29.58204,-70.99609 -38.56641,-148.88672 -25.91797,-224.75391l13.79297,-82.73437l15.77343,2.64062l-13.78125,82.72656c-12.15625,72.91016 -3.52343,147.76954 24.90235,216.00001l22.66406,54.51171l-14.77734,6.1211zm0,0"/>
    <path id="svg_6" fill="#00ffa4" d="m93.33984,321l-1.35156,0c-31.97656,0 -63.35156,-8.69141 -90.76953,-25.14453l8.24219,-13.71094c24.92969,14.95313 53.45703,22.85547 82.52734,22.85547l0.80078,0l28.8711,-4.12891c33.70312,-4.8164 64.9375,-20.42968 89.01562,-44.5039l13.02344,-13.02344l11.3125,11.3125l-13.02344,13.02344c-26.51953,26.52734 -60.92969,43.73437 -98.0625,49.03125l-29.43359,4.21094c-0.38281,0.05468 -0.76563,0.08203 -1.15235,0.07812zm0,0"/>
    <path id="svg_7" fill="#00ffa4" d="m124.04297,241l-38.70313,0c-0.65625,0 -1.30859,-0.08203 -1.94531,-0.23828l-29.2539,-7.32031c-24.30079,-6.06641 -44.73438,-22.45703 -55.92969,-44.86719l14.32031,-7.14844c9.10156,18.22656 25.72266,31.5586 45.48828,36.48438l28.30469,7.08984l37.71875,0c31.03516,0.00391 60.26172,-14.60937 78.88281,-39.44141l4,-5.35937l12.79688,9.60156l-4,5.35938c-21.64063,28.85937 -55.60547,45.83984 -91.67969,45.83984zm0,0"/>
    <path id="svg_8" fill="#00ffa4" d="m85.33984,161c-1.01953,0 -2.03125,-0.19531 -2.97656,-0.57422l-13.21484,-5.28906c-18.95703,-7.55469 -35.16406,-20.70313 -46.46485,-37.69531l13.3125,-8.88282c9.50391,14.30079 23.14454,25.36719 39.09766,31.72266l10.8125,4.33594l33.50391,-8.41797c17.63281,-4.39063 34.375,-11.79688 49.48828,-21.88672l8.88281,13.3125c-16.64453,11.10156 -35.07422,19.25391 -54.48047,24.10156l-36,9c-0.64062,0.17188 -1.29687,0.26563 -1.96094,0.27344zm0,0"/>
   </g>
  </g>
 </g>
</svg>